<svg width="104" height="26" viewBox="0 0 104 26" fill="none" xmlns="http://www.w3.org/2000/svg">
<path d="M21.4481 17.8734C21.4285 17.8734 21.4107 17.879 21.3911 17.879L19.2016 14.2306C19.4848 13.7184 19.6607 13.1381 19.6607 12.5114C19.6607 11.8847 19.4854 11.3044 19.2016 10.7922L21.3911 7.14378C21.4107 7.14433 21.4285 7.14936 21.4481 7.14936C23.4225 7.14936 25.0228 5.54913 25.0228 3.57468C25.0228 1.60023 23.4225 0 21.4481 0C20.1282 0 18.9883 0.723314 18.3694 1.78734H6.65338C6.03451 0.723314 4.89452 0 3.57468 0C1.60023 0 0 1.60023 0 3.57468C0 4.89452 0.723314 6.03451 1.78734 6.65337V18.3688C0.723314 18.9883 0 20.1282 0 21.4481C0 23.4225 1.60023 25.0228 3.57468 25.0228C4.89452 25.0228 6.03451 24.2995 6.65338 23.2354H18.3688C18.9883 24.2995 20.1277 25.0228 21.4475 25.0228C23.422 25.0228 25.0222 23.4225 25.0222 21.4481C25.0228 19.4736 23.4225 17.8734 21.4481 17.8734ZM5.36202 18.3694V6.65337C5.8973 6.34235 6.34235 5.8973 6.65338 5.36202H18.2912L16.143 8.94229C16.1235 8.94173 16.1056 8.9367 16.0861 8.9367C14.1116 8.9367 12.5114 10.5369 12.5114 12.5114C12.5114 14.4858 14.1116 16.0861 16.0861 16.0861C16.1056 16.0861 16.1235 16.0805 16.143 16.0805L18.2912 19.6607H6.65338C6.34251 19.1253 5.89742 18.6803 5.36202 18.3694ZM15.1924 12.5114C15.1924 12.0187 15.5934 11.6177 16.0861 11.6177C16.5787 11.6177 16.9797 12.0187 16.9797 12.5114C16.9797 13.004 16.5787 13.4051 16.0861 13.4051C15.5934 13.4051 15.1924 13.004 15.1924 12.5114ZM22.3418 3.57468C22.3418 4.06732 21.9407 4.46835 21.4481 4.46835C20.9555 4.46835 20.5544 4.06732 20.5544 3.57468C20.5544 3.08205 20.9555 2.68101 21.4481 2.68101C21.9407 2.68101 22.3418 3.08205 22.3418 3.57468ZM3.57468 2.68101C4.06732 2.68101 4.46835 3.08205 4.46835 3.57468C4.46835 4.06732 4.06732 4.46835 3.57468 4.46835C3.08205 4.46835 2.68101 4.06732 2.68101 3.57468C2.68101 3.08205 3.08205 2.68101 3.57468 2.68101ZM2.68101 21.4481C2.68101 20.9555 3.08205 20.5544 3.57468 20.5544C4.06732 20.5544 4.46835 20.9555 4.46835 21.4481C4.46835 21.9407 4.06732 22.3418 3.57468 22.3418C3.08205 22.3418 2.68101 21.9407 2.68101 21.4481ZM21.4481 22.3418C20.9555 22.3418 20.5544 21.9407 20.5544 21.4481C20.5544 20.9555 20.9555 20.5544 21.4481 20.5544C21.9407 20.5544 22.3418 20.9555 22.3418 21.4481C22.3418 21.9407 21.9407 22.3418 21.4481 22.3418Z" fill="#F2F2F2"/>
<path d="M64.0557 0H39.9452C38.6141 0 37.5341 1.07995 37.5341 2.41105V18.4847C37.5341 19.8158 38.6141 20.8958 39.9452 20.8958H49.5894L48.7857 23.3068H45.1691C44.5011 23.3068 43.9636 23.8443 43.9636 24.5123C43.9636 25.1804 44.5011 25.7178 45.1691 25.7178H58.8317C59.4998 25.7178 60.0373 25.1804 60.0373 24.5123C60.0373 23.8443 59.4998 23.3068 58.8317 23.3068H55.2152L54.4115 20.8958H64.0557C65.3868 20.8958 66.4667 19.8158 66.4667 18.4847V2.41105C66.4667 1.07995 65.3868 0 64.0557 0ZM63.252 17.681H40.7489V3.21473H63.252V17.681Z" fill="#F2F2F2"/>
<path d="M101.313 16.8324C100.089 17.826 98.7409 18.6495 97.2791 19.2296L99.9368 23.8328L102.573 24.9588C103.053 25.1636 103.594 24.8508 103.657 24.3333L104 21.4865L101.313 16.8324ZM103.39 12.2111C103.627 11.8363 103.482 11.3319 103.094 11.1169L101.722 10.3559C101.357 10.1531 100.91 10.2846 100.683 10.6355C98.674 13.7403 95.2158 15.639 91.4893 15.639C90.3198 15.639 89.1811 15.4313 88.0971 15.0755L91.3891 9.37313C91.4233 9.37411 91.4546 9.38339 91.4888 9.38339C91.523 9.38339 91.5548 9.37411 91.5885 9.37313L94.0854 13.6983C95.6116 13.2604 96.9962 12.4398 98.1227 11.3075L95.5916 6.92318C95.9557 6.25706 96.181 5.50444 96.181 4.6917C96.181 2.10051 94.0805 0 91.4893 0C88.8981 0 86.7976 2.10051 86.7976 4.6917C86.7976 5.50444 87.0229 6.25706 87.3865 6.92318L84.0486 12.7052C83.4352 12.1378 82.8776 11.5035 82.4026 10.7992C82.1685 10.4522 81.7198 10.3291 81.3577 10.5387L80.0015 11.3241C79.6178 11.546 79.482 12.0523 79.7259 12.4222C80.4868 13.5776 81.4212 14.5829 82.4617 15.4533L78.9781 21.487L79.3212 24.3338C79.3837 24.8513 79.9252 25.1641 80.4047 24.9593L83.0413 23.8333L86.5014 17.8402C88.0746 18.4384 89.7602 18.7668 91.4893 18.7668C96.3301 18.7668 100.818 16.2738 103.39 12.2111ZM91.4893 3.1278C92.3529 3.1278 93.0532 3.82813 93.0532 4.6917C93.0532 5.55526 92.3529 6.2556 91.4893 6.2556C90.6257 6.2556 89.9254 5.55526 89.9254 4.6917C89.9254 3.82813 90.6257 3.1278 91.4893 3.1278Z" fill="#F2F2F2"/>
</svg>
