<svg width="200" height="199" viewBox="0 0 200 199" fill="none" xmlns="http://www.w3.org/2000/svg">
<path d="M95.7176 184.819L95.5369 187.25L91.135 186.922L91.3156 184.492L95.7176 184.819Z" fill="#F2F2F2"/>
<path d="M66.6326 178.842C66.8441 178.26 67.1918 177.76 67.6757 177.342C68.1578 176.93 68.7683 176.675 69.5074 176.578C70.2416 176.478 71.0982 176.607 72.0774 176.962C72.567 177.14 72.9898 177.318 73.3459 177.497C73.6971 177.675 74.014 177.87 74.2967 178.083C74.5776 178.302 74.8601 178.554 75.1442 178.84L74.2059 181.425C73.7299 180.919 73.2242 180.481 72.6886 180.109C72.1513 179.743 71.6428 179.472 71.163 179.298C70.8741 179.193 70.6267 179.142 70.4207 179.145C70.2098 179.146 70.0389 179.189 69.9081 179.275C69.7756 179.365 69.6809 179.489 69.624 179.645C69.5565 179.831 69.5657 180.012 69.6517 180.187C69.731 180.366 69.8869 180.577 70.1193 180.822C70.3517 181.067 70.6623 181.38 71.051 181.759C71.38 182.089 71.6706 182.411 71.9226 182.724C72.1698 183.035 72.3631 183.357 72.5026 183.69C72.6354 184.027 72.7016 184.386 72.7014 184.768C72.7012 185.151 72.6176 185.572 72.4505 186.032C72.2 186.722 71.8214 187.239 71.3148 187.581C70.8015 187.927 70.1986 188.107 69.5063 188.122C68.809 188.134 68.0613 187.996 67.2633 187.706C66.5632 187.452 65.9625 187.146 65.4613 186.786C64.9551 186.425 64.5157 186.064 64.1431 185.701L65.8446 183.784C66.2284 184.161 66.6209 184.492 67.022 184.776C67.4213 185.065 67.8119 185.279 68.1937 185.418C68.4434 185.508 68.6606 185.551 68.8453 185.546C69.0233 185.544 69.1701 185.506 69.2857 185.432C69.3965 185.356 69.4759 185.251 69.5238 185.119C69.5842 184.953 69.5748 184.78 69.4955 184.602C69.4113 184.422 69.2458 184.198 68.9992 183.931C68.7458 183.668 68.3992 183.318 67.9593 182.881C67.5207 182.456 67.1676 182.039 66.8999 181.632C66.6305 181.229 66.4696 180.803 66.4173 180.351C66.3583 179.903 66.4301 179.4 66.6326 178.842Z" fill="#F2F2F2"/>
<path d="M52.0307 180.368C50.7835 179.633 50.0104 178.811 49.7114 177.903C49.4079 176.993 49.5512 176.037 50.1411 175.037C50.4057 174.588 50.7247 174.196 51.0982 173.86C51.4672 173.521 51.8928 173.276 52.3749 173.125C52.8525 172.971 53.3869 172.942 53.9781 173.037C54.5647 173.129 55.208 173.381 55.9079 173.794L56.6548 174.234L58.5795 170.97L61.2377 172.538L55.4358 182.376L52.0307 180.368ZM53.3572 178.257L54.0436 178.662L55.377 176.401L54.8521 176.092C54.6233 175.957 54.3877 175.869 54.1453 175.829C53.9003 175.793 53.6679 175.829 53.4481 175.935C53.2211 176.043 53.0203 176.245 52.8457 176.541C52.6632 176.85 52.607 177.156 52.6772 177.457C52.7447 177.763 52.9714 178.03 53.3572 178.257Z" fill="#F2F2F2"/>
<path d="M37.7148 170.07C36.938 169.384 36.3763 168.718 36.0299 168.071C35.6801 167.429 35.5419 166.807 35.6152 166.204C35.6846 165.599 35.9658 165.016 36.4588 164.458C36.7656 164.111 37.1035 163.846 37.4723 163.665C37.8411 163.483 38.2347 163.376 38.6533 163.342C39.0646 163.309 39.4946 163.342 39.9434 163.439L40.743 157.506L43.3665 159.823L42.4306 164.541L43.0162 165.059L45.7674 161.943L48.0805 163.986L40.5198 172.547L37.7148 170.07ZM39.2962 168.35L39.753 168.754L41.4803 166.798L41.0469 166.415C40.6917 166.101 40.3319 165.923 39.9675 165.879C39.6032 165.835 39.2435 166.014 38.8884 166.416C38.6436 166.693 38.546 166.993 38.5954 167.314C38.6449 167.636 38.8785 167.981 39.2962 168.35Z" fill="#F2F2F2"/>
<path d="M36.8223 153.003L27.9883 160.244L26.0223 157.845L34.8563 150.604L36.8223 153.003Z" fill="#F2F2F2"/>
<path d="M24.9547 135.022L26.9229 138.558L21.9206 146.117L21.9548 146.179C22.156 146.037 22.4018 145.873 22.692 145.688C22.9822 145.502 23.2805 145.316 23.587 145.127C23.8888 144.941 24.1649 144.779 24.4152 144.639L28.9138 142.135L30.2436 144.525L20.2635 150.08L18.3029 146.557L23.2172 139.065L23.1944 139.024C22.9835 139.16 22.7386 139.314 22.4595 139.487C22.1758 139.663 21.8899 139.84 21.6017 140.018C21.3109 140.192 21.0518 140.342 20.8242 140.469L16.312 142.98L14.9746 140.577L24.9547 135.022Z" fill="#F2F2F2"/>
<path d="M20.4723 122.982L21.4001 125.925L12.9134 128.601L13.752 131.261L11.3453 132.02L8.74273 123.764L11.1494 123.005L11.9856 125.658L20.4723 122.982Z" fill="#F2F2F2"/>
<path d="M14.1006 104.783L11.6643 104.859L11.5258 100.448L13.9621 100.371L14.1006 104.783Z" fill="#F2F2F2"/>
<path d="M19.7622 78.4218L19.0209 81.4174L10.383 79.2799L9.71305 81.9873L7.2635 81.3812L9.34283 72.9784L11.7924 73.5845L11.1243 76.2843L19.7622 78.4218Z" fill="#F2F2F2"/>
<path d="M26.7815 60.3339L25.4629 63.1412L21.2484 61.1616L19.7239 64.4073L23.9383 66.3869L22.6197 69.1942L12.2815 64.3381L13.6001 61.5308L17.4328 63.3311L18.9574 60.0854L15.1247 58.2851L16.4434 55.4778L26.7815 60.3339Z" fill="#F2F2F2"/>
<path d="M30.9705 53.5843L21.6208 47.0236L23.4023 44.4848L32.752 51.0454L30.9705 53.5843Z" fill="#F2F2F2"/>
<path d="M45.0961 37.3172L42.2199 40.164L33.5941 37.3795L33.5441 37.4289C33.7349 37.5846 33.9585 37.7773 34.2151 38.0069C34.4718 38.2366 34.732 38.4736 34.9959 38.7181C35.2562 38.9588 35.4871 39.181 35.6886 39.3846L39.3103 43.0437L37.3669 44.9673L29.3321 36.8493L32.1972 34.0135L40.7349 36.7312L40.7682 36.6982C40.5813 36.5316 40.3668 36.3371 40.1249 36.1149C39.8793 35.889 39.6319 35.6612 39.3826 35.4316C39.1371 35.1983 38.9227 34.9891 38.7395 34.804L35.1068 31.1337L37.0613 29.1992L45.0961 37.3172Z" fill="#F2F2F2"/>
<path d="M59.4501 27.2179L56.52 29.1034L52.2581 26.6527L51.7853 27.6072L53.8526 30.8198L51.2444 32.4982L45.0636 22.8931L47.6718 21.2148L50.3564 25.3866C50.3306 25.1059 50.3201 24.8153 50.325 24.5149C50.3343 24.2117 50.3462 23.9222 50.3608 23.6465L50.4837 19.4053L53.3219 17.579L53.0623 23.8312L59.4501 27.2179Z" fill="#F2F2F2"/>
<path d="M64.8762 24.6535L60.3131 14.1827L63.1564 12.9436L67.7195 23.4144L64.8762 24.6535Z" fill="#F2F2F2"/>
<path d="M85.408 18.1268L81.4698 19.0584L75.5575 12.1881L75.4891 12.2042C75.5708 12.4365 75.6613 12.7174 75.7607 13.0472C75.8601 13.3769 75.9588 13.7148 76.0568 14.0609C76.1535 14.402 76.2348 14.7119 76.3008 14.9907L77.486 20.0008L74.825 20.6303L72.1957 9.51518L76.1186 8.58717L81.9905 15.3547L82.0361 15.3439C81.9634 15.1042 81.8816 14.8265 81.7909 14.5108C81.6989 14.19 81.6064 13.8667 81.5133 13.5408C81.4252 13.2138 81.3512 12.9236 81.2912 12.6701L80.1024 7.64477L82.7786 7.0117L85.408 18.1268Z" fill="#F2F2F2"/>
<path d="M97.6221 10.4213L102.551 10.3332L102.661 16.4885C102.076 16.7021 101.405 16.8808 100.647 17.0245C99.8888 17.1631 99.0931 17.2398 98.2599 17.2547C97.1611 17.2744 96.1939 17.0781 95.3583 16.6658C94.5227 16.2536 93.8654 15.6168 93.3864 14.7555C92.9073 13.8889 92.6558 12.789 92.632 11.4559C92.6106 10.2582 92.8212 9.22041 93.264 8.34256C93.7066 7.45951 94.3689 6.77309 95.2509 6.2833C96.1381 5.7882 97.2299 5.52906 98.5266 5.50589C99.24 5.49314 99.9182 5.54874 100.561 5.67269C101.204 5.79664 101.764 5.95853 102.242 6.15836L101.309 8.5973C100.894 8.40156 100.464 8.25817 100.02 8.16714C99.5752 8.0709 99.0978 8.02734 98.5875 8.03646C97.9053 8.04865 97.3586 8.21209 96.9475 8.52678C96.5416 8.84137 96.2495 9.25812 96.0713 9.77701C95.8929 10.2907 95.8093 10.8574 95.8204 11.4771C95.833 12.1853 95.9427 12.7824 96.1493 13.2684C96.3611 13.749 96.6619 14.1135 97.0518 14.3618C97.4468 14.6048 97.9203 14.7213 98.4723 14.7115C98.6546 14.7082 98.8757 14.6912 99.1356 14.6605C99.4007 14.6298 99.6006 14.5949 99.7354 14.5561L99.7034 12.7673L97.6647 12.8037L97.6221 10.4213Z" fill="#F2F2F2"/>
<path d="M119.445 16.3653L120.09 14.0148L124.347 15.1838L123.701 17.5343L119.445 16.3653Z" fill="#F2F2F2"/>
<path d="M146.834 27.8324C146.514 28.3634 146.076 28.787 145.521 29.1032C144.969 29.4149 144.321 29.5474 143.577 29.5007C142.837 29.4567 142.021 29.166 141.129 28.6286C140.683 28.3599 140.302 28.1034 139.987 27.8591C139.677 27.6174 139.403 27.3646 139.167 27.1008C138.933 26.8324 138.705 26.5306 138.481 26.1953L139.9 23.8394C140.269 24.4269 140.681 24.9545 141.135 25.4224C141.592 25.8858 142.039 26.2492 142.476 26.5125C142.739 26.671 142.972 26.7687 143.175 26.8057C143.382 26.8453 143.558 26.8357 143.703 26.777C143.85 26.7138 143.967 26.6109 144.053 26.4681C144.155 26.2985 144.181 26.1195 144.13 25.9309C144.087 25.7406 143.975 25.5028 143.794 25.2176C143.613 24.9324 143.368 24.5662 143.06 24.1191C142.801 23.7319 142.577 23.3604 142.39 23.0046C142.208 22.6515 142.08 22.2981 142.008 21.9442C141.942 21.5886 141.946 21.2233 142.02 20.8483C142.094 20.4732 142.257 20.076 142.51 19.6566C142.888 19.0275 143.359 18.5937 143.923 18.3552C144.493 18.1149 145.119 18.0543 145.801 18.1733C146.488 18.2949 147.195 18.5747 147.922 19.0127C148.56 19.3969 149.091 19.8135 149.513 20.2626C149.94 20.7143 150.302 21.1539 150.598 21.5814L148.559 23.135C148.255 22.6906 147.934 22.2904 147.595 21.9343C147.259 21.5738 146.916 21.2888 146.568 21.0792C146.341 20.9422 146.136 20.8584 145.954 20.8277C145.779 20.7953 145.627 20.8044 145.5 20.8551C145.376 20.9085 145.278 20.9955 145.206 21.1159C145.114 21.2676 145.09 21.4386 145.134 21.629C145.182 21.822 145.301 22.0732 145.492 22.3825C145.69 22.6901 145.962 23.1005 146.31 23.6138C146.658 24.1154 146.925 24.592 147.109 25.0433C147.296 25.4902 147.371 25.9401 147.336 26.3929C147.307 26.8439 147.14 27.3238 146.834 27.8324Z" fill="#F2F2F2"/>
<path d="M158.736 32.3952L163.021 30.5383L165.52 32.7598L158.087 35.4659L155.123 38.8L152.799 36.7343L155.701 33.4702L157.579 25.7009L160.09 27.9328L158.736 32.3952Z" fill="#F2F2F2"/>
<path d="M169.481 49.7831C168.992 50.1629 168.431 50.4 167.799 50.4945C167.171 50.5858 166.519 50.4754 165.842 50.1633C165.168 49.8553 164.512 49.2897 163.874 48.4665C163.555 48.0549 163.292 47.6783 163.087 47.3367C162.884 46.9993 162.721 46.6649 162.596 46.3335C162.475 45.999 162.37 45.635 162.283 45.2415L164.456 43.5565C164.589 44.2378 164.782 44.8786 165.037 45.4787C165.295 46.0757 165.581 46.5759 165.894 46.9793C166.082 47.2221 166.264 47.3973 166.44 47.505C166.619 47.6167 166.786 47.6713 166.943 47.6688C167.103 47.6631 167.249 47.6092 167.381 47.5071C167.537 47.3858 167.626 47.2281 167.647 47.034C167.675 46.8408 167.656 46.5786 167.59 46.2473C167.524 45.916 167.428 45.4863 167.302 44.958C167.2 44.5033 167.126 44.0763 167.08 43.677C167.037 43.2818 167.046 42.9061 167.106 42.5499C167.173 42.1946 167.309 41.8554 167.513 41.5323C167.717 41.2092 168.013 40.8977 168.4 40.5977C168.98 40.1477 169.576 39.9132 170.187 39.894C170.806 39.8758 171.412 40.0452 172.005 40.4025C172.601 40.7638 173.16 41.2799 173.68 41.9508C174.136 42.5394 174.481 43.1194 174.713 43.6908C174.948 44.2663 175.126 44.8067 175.248 45.3121L172.786 46.0251C172.663 45.5009 172.507 45.0117 172.32 44.5573C172.137 44.0998 171.92 43.7105 171.671 43.3894C171.509 43.1795 171.348 43.0274 171.189 42.933C171.038 42.8396 170.893 42.7935 170.756 42.7946C170.621 42.7999 170.499 42.8456 170.387 42.9318C170.247 43.0403 170.163 43.1912 170.135 43.3843C170.11 43.5816 170.131 43.8589 170.197 44.2163C170.27 44.5745 170.377 45.0557 170.515 45.6598C170.659 46.2534 170.736 46.7939 170.745 47.2813C170.758 47.7656 170.666 48.2124 170.469 48.6218C170.28 49.0322 169.951 49.4193 169.481 49.7831Z" fill="#F2F2F2"/>
<path d="M172.992 62.481L171.564 59.745L179.454 55.6293L178.164 53.1565L180.401 51.9894L184.405 59.6641L182.168 60.8313L180.881 58.3654L172.992 62.481Z" fill="#F2F2F2"/>
<path d="M178.928 77.817L176.872 71.3551L187.756 67.8914L189.812 74.3534L187.453 75.1044L186.332 71.5831L184.62 72.128L185.657 75.3887L183.297 76.1397L182.26 72.879L180.205 73.5329L181.326 77.0542L178.928 77.817Z" fill="#F2F2F2"/>
<path d="M181.154 89.4673L189.107 86.3247L189.1 86.2547C188.89 86.2967 188.604 86.3461 188.243 86.4031C187.883 86.4653 187.494 86.5278 187.076 86.5904C186.659 86.6531 186.256 86.7039 185.867 86.7428L180.931 87.2362L180.659 84.5154L192.024 83.3793L192.433 87.4683L184.6 90.6459L184.607 90.7081L192.908 92.2258L193.318 96.3226L181.952 97.4587L181.67 94.6369L186.653 94.1387C187.011 94.103 187.395 94.0698 187.805 94.0393C188.222 94.0134 188.612 93.99 188.976 93.9693C189.346 93.9533 189.638 93.9424 189.852 93.9367L189.845 93.8667L181.446 92.3902L181.154 89.4673Z" fill="#F2F2F2"/>
<path d="M183.488 114.646L185.872 115.155L184.951 119.472L182.567 118.963L183.488 114.646Z" fill="#F2F2F2"/>
<path d="M179.653 143.18C179.824 142.858 179.909 142.535 179.906 142.208C179.907 141.884 179.827 141.564 179.665 141.248C179.504 140.931 179.262 140.625 178.942 140.33C178.623 140.042 178.229 139.773 177.761 139.523C177.126 139.185 176.55 138.981 176.033 138.912C175.515 138.842 175.059 138.912 174.664 139.12C174.267 139.333 173.936 139.688 173.671 140.184C173.431 140.635 173.263 141.1 173.166 141.58C173.067 142.064 172.992 142.564 172.941 143.08L170.639 141.852C170.679 141.301 170.781 140.768 170.943 140.252C171.104 139.742 171.323 139.224 171.603 138.7C172.186 137.607 172.88 136.826 173.685 136.358C174.492 135.897 175.369 135.707 176.318 135.787C177.264 135.873 178.247 136.188 179.267 136.732C180.03 137.139 180.672 137.617 181.193 138.167C181.712 138.721 182.094 139.329 182.337 139.99C182.585 140.654 182.674 141.356 182.603 142.098C182.535 142.846 182.291 143.613 181.871 144.399C181.612 144.886 181.281 145.368 180.879 145.844C180.48 146.328 180.018 146.761 179.496 147.143L177.797 145.165C178.168 144.891 178.513 144.597 178.834 144.284C179.154 143.971 179.427 143.603 179.653 143.18Z" fill="#F2F2F2"/>
<path d="M163.716 159.845C163.038 159.283 162.489 158.689 162.068 158.062C161.648 157.443 161.381 156.795 161.266 156.118C161.151 155.44 161.21 154.741 161.442 154.021C161.679 153.303 162.109 152.568 162.735 151.814C163.346 151.077 163.983 150.525 164.644 150.16C165.307 149.803 165.981 149.614 166.667 149.595C167.357 149.579 168.05 149.717 168.747 150.011C169.444 150.305 170.135 150.737 170.821 151.305C171.735 152.063 172.404 152.872 172.828 153.731C173.252 154.598 173.386 155.501 173.23 156.44C173.077 157.383 172.592 158.347 171.774 159.333C170.942 160.336 170.081 160.995 169.189 161.311C168.295 161.631 167.387 161.656 166.467 161.387C165.547 161.117 164.63 160.604 163.716 159.845ZM168.734 153.796C168.205 153.358 167.7 153.04 167.219 152.845C166.739 152.649 166.288 152.597 165.867 152.688C165.447 152.778 165.062 153.034 164.713 153.455C164.35 153.892 164.165 154.324 164.156 154.75C164.145 155.18 164.283 155.609 164.57 156.037C164.855 156.47 165.262 156.905 165.791 157.344C166.584 158.002 167.321 158.391 168.002 158.508C168.682 158.626 169.29 158.363 169.826 157.717C170.181 157.288 170.365 156.855 170.376 156.418C170.384 155.984 170.245 155.548 169.96 155.108C169.672 154.673 169.263 154.235 168.734 153.796Z" fill="#F2F2F2"/>
<path d="M154.206 161.008L161.403 169.877L159.007 171.821L153.38 164.888L149.965 167.659L148.394 165.724L154.206 161.008Z" fill="#F2F2F2"/>
<path d="M135.67 179.877C135.26 179.099 134.98 178.339 134.831 177.599C134.68 176.866 134.682 176.165 134.835 175.495C134.988 174.826 135.31 174.203 135.801 173.626C136.294 173.054 136.974 172.539 137.84 172.083C138.688 171.636 139.487 171.371 140.238 171.287C140.987 171.21 141.681 171.294 142.323 171.539C142.966 171.788 143.554 172.182 144.085 172.721C144.616 173.259 145.089 173.922 145.505 174.71C146.059 175.761 146.367 176.764 146.429 177.72C146.49 178.683 146.267 179.569 145.763 180.376C145.261 181.189 144.443 181.894 143.31 182.491C142.158 183.098 141.11 183.377 140.165 183.328C139.216 183.28 138.368 182.956 137.621 182.355C136.874 181.754 136.224 180.928 135.67 179.877ZM142.623 176.212C142.302 175.604 141.957 175.117 141.588 174.752C141.219 174.388 140.823 174.167 140.4 174.09C139.976 174.013 139.523 174.101 139.039 174.357C138.537 174.621 138.2 174.949 138.029 175.339C137.854 175.732 137.817 176.181 137.918 176.687C138.016 177.195 138.224 177.753 138.545 178.362C139.026 179.274 139.558 179.915 140.142 180.284C140.725 180.654 141.388 180.643 142.129 180.252C142.622 179.992 142.958 179.662 143.135 179.262C143.309 178.865 143.348 178.408 143.253 177.893C143.153 177.381 142.943 176.82 142.623 176.212Z" fill="#F2F2F2"/>
<path d="M126.048 189.341C125.053 189.63 124.19 189.748 123.458 189.695C122.728 189.646 122.129 189.43 121.659 189.046C121.184 188.663 120.843 188.114 120.636 187.399C120.506 186.953 120.464 186.526 120.508 186.118C120.552 185.709 120.672 185.319 120.867 184.948C121.06 184.583 121.317 184.237 121.64 183.91L117.056 180.059L120.417 179.083L123.902 182.399L124.652 182.181L123.493 178.189L126.456 177.329L129.642 188.297L126.048 189.341ZM125.442 187.085L126.027 186.915L125.299 184.409L124.744 184.57C124.289 184.702 123.945 184.911 123.713 185.195C123.481 185.479 123.44 185.879 123.59 186.394C123.693 186.749 123.894 186.992 124.192 187.122C124.49 187.253 124.907 187.24 125.442 187.085Z" fill="#F2F2F2"/>
<path d="M104.105 185.205C104.045 184.588 104.143 183.987 104.399 183.402C104.656 182.822 105.097 182.329 105.722 181.922C106.341 181.516 107.169 181.262 108.206 181.16C108.724 181.109 109.182 181.087 109.581 181.095C109.974 181.103 110.345 181.143 110.692 181.213C111.039 181.289 111.403 181.395 111.783 181.53L112.052 184.267C111.404 184.017 110.759 183.839 110.115 183.735C109.472 183.636 108.897 183.612 108.389 183.662C108.083 183.692 107.838 183.752 107.653 183.844C107.463 183.936 107.328 184.048 107.247 184.182C107.166 184.321 107.134 184.473 107.151 184.639C107.17 184.836 107.256 184.995 107.409 185.116C107.558 185.243 107.79 185.366 108.105 185.487C108.421 185.608 108.836 185.755 109.35 185.93C109.789 186.086 110.19 186.25 110.552 186.424C110.91 186.598 111.223 186.805 111.493 187.046C111.758 187.292 111.973 187.587 112.137 187.932C112.302 188.277 112.408 188.693 112.456 189.181C112.528 189.911 112.41 190.541 112.1 191.068C111.786 191.602 111.32 192.024 110.702 192.336C110.079 192.649 109.344 192.846 108.5 192.93C107.758 193.002 107.084 192.985 106.477 192.877C105.865 192.77 105.312 192.633 104.819 192.467L105.527 190.003C106.036 190.178 106.533 190.307 107.017 190.391C107.502 190.479 107.947 190.503 108.351 190.463C108.616 190.437 108.83 190.382 108.994 190.298C109.154 190.22 109.27 190.122 109.342 190.005C109.409 189.888 109.436 189.76 109.422 189.62C109.405 189.444 109.322 189.293 109.174 189.166C109.02 189.04 108.774 188.909 108.436 188.775C108.094 188.647 107.63 188.48 107.045 188.276C106.466 188.082 105.968 187.859 105.55 187.607C105.134 187.36 104.804 187.044 104.562 186.66C104.316 186.281 104.164 185.796 104.105 185.205Z" fill="#F2F2F2"/>
</svg>
